<?xml version="1.0" encoding="UTF-8" standalone="no"?>
<!-- Generator: Adobe Illustrator 14.0.0, SVG Export Plug-In . SVG Version: 6.00 Build 43363)  -->

<svg
   xmlns:dc="http://purl.org/dc/elements/1.1/"
   xmlns:cc="http://creativecommons.org/ns#"
   xmlns:rdf="http://www.w3.org/1999/02/22-rdf-syntax-ns#"
   xmlns:svg="http://www.w3.org/2000/svg"
   xmlns="http://www.w3.org/2000/svg"
   xmlns:sodipodi="http://sodipodi.sourceforge.net/DTD/sodipodi-0.dtd"
   xmlns:inkscape="http://www.inkscape.org/namespaces/inkscape"
   version="1.2"
   x="0px"
   y="0px"
   width="595.275px"
   height="841.89px"
   viewBox="0 0 595.275 841.89"
   xml:space="preserve"
   id="svg2"
   inkscape:version="0.91 r13725"
   sodipodi:docname="honeywell.svg"><metadata
     id="metadata2942"><rdf:RDF><cc:Work
         rdf:about=""><dc:format>image/svg+xml</dc:format><dc:type
           rdf:resource="http://purl.org/dc/dcmitype/StillImage" /><dc:title></dc:title></cc:Work></rdf:RDF></metadata><defs
     id="defs2940" /><sodipodi:namedview
     pagecolor="#ffffff"
     bordercolor="#666666"
     borderopacity="1"
     objecttolerance="10"
     gridtolerance="10"
     guidetolerance="10"
     inkscape:pageopacity="0"
     inkscape:pageshadow="2"
     inkscape:window-width="1284"
     inkscape:window-height="762"
     id="namedview2938"
     showgrid="false"
     inkscape:zoom="5.6568542"
     inkscape:cx="278.16815"
     inkscape:cy="384.10925"
     inkscape:window-x="0"
     inkscape:window-y="0"
     inkscape:window-maximized="0"
     inkscape:current-layer="svg2" /><g
     id="g7169"><g
       id="breadboard"><g
         id="g2905"><g
           id="g2907"><rect
             fill="#8C8C8C"
             height="4.809"
             width="2.16"
             y="434.78"
             x="272.52"
             id="rect20" /><rect
             fill="#8C8C8C"
             height="4.809"
             width="2.16"
             y="434.78"
             x="279.72"
             id="rect22" /><rect
             fill="#8C8C8C"
             height="4.809"
             width="2.16"
             y="434.78"
             x="286.919"
             id="rect24" /><rect
             fill="#8C8C8C"
             height="4.809"
             width="2.158"
             y="434.78"
             x="294.121"
             id="rect26" /><rect
             fill="#8C8C8C"
             height="4.81"
             width="2.16"
             y="415.83"
             x="272.52"
             id="rect28" /><rect
             fill="#8C8C8C"
             height="4.81"
             width="2.16"
             y="415.83"
             x="279.72"
             id="rect30" /><rect
             fill="#8C8C8C"
             height="4.81"
             width="2.16"
             y="415.83"
             x="286.919"
             id="rect32" /><rect
             fill="#8C8C8C"
             height="4.81"
             width="2.158"
             y="415.83"
             x="294.121"
             id="rect34" /><polygon
             fill="#3E3E3E"
             points="270,417.99 298.8,417.99 298.259,424.11 270,424.11    "
             id="polygon36" /><polygon
             fill="#010101"
             points="270,431.31 298.259,431.31 298.8,437.431 270,437.431    "
             id="polygon38" /><polygon
             fill="#8C8C8C"
             points="276.12,418.955 276.12,418.177 274.68,417.514 272.52,417.514 272.52,418.955         "
             id="polygon40" /><polygon
             fill="#8C8C8C"
             points="283.32,418.955 283.32,418.177 281.88,417.514 279.72,417.514 278.28,418.177      278.28,418.955    "
             id="polygon42" /><polygon
             fill="#8C8C8C"
             points="296.279,418.955 296.279,417.514 294.121,417.514 292.681,418.177      292.681,418.955    "
             id="polygon44" /><polygon
             fill="#8C8C8C"
             points="290.52,418.955 290.52,418.177 289.08,417.514 286.919,417.514 285.48,418.177      285.48,418.955    "
             id="polygon46" /><polygon
             fill="#8C8C8C"
             points="272.52,436.466 272.52,437.905 274.68,437.905 276.12,437.243 276.12,436.466         "
             id="polygon48" /><polygon
             fill="#8C8C8C"
             points="292.681,436.466 292.681,437.243 294.121,437.905 296.279,437.905      296.279,436.466    "
             id="polygon50" /><polygon
             fill="#8C8C8C"
             points="278.28,436.466 278.28,437.243 279.72,437.905 281.88,437.905 283.32,437.243      283.32,436.466    "
             id="polygon52" /><polygon
             fill="#8C8C8C"
             points="285.48,436.466 285.48,437.243 286.919,437.905 289.08,437.905 290.52,437.243      290.52,436.466    "
             id="polygon54" /><polygon
             fill="#161616"
             points="298.8,417.99 298.259,419.761 297.253,419.761 297.253,435.651 298.259,435.659      298.8,437.431    "
             id="polygon56" /><polygon
             fill="#1F2020"
             points="270,417.99 270.54,419.761 270.54,424.11 273.6,424.11 273.6,431.31      270.54,431.31 270.54,435.659 270,437.431    "
             id="polygon58" /><path
             sodipodi:nodetypes="cccccc"
             style="fill:#303030"
             inkscape:connector-curvature="0"
             d="m 270.54,419.761 c 0.008,10.41177 0,8.21211 0,15.892 l 27.719,0 0,-15.891 -27.719,0 z"
             id="path64" /><rect
             y="420.65256"
             x="298.22217"
             height="3.0396745"
             width="9.1882286"
             id="rect7074"
             style="fill:#333333;fill-opacity:1;stroke:#000000;stroke-width:1.19225764;stroke-opacity:0" /><rect
             style="fill:#333333;fill-opacity:1;stroke:#000000;stroke-width:1.192;stroke-opacity:0;stroke-miterlimit:4;stroke-dasharray:none"
             id="rect7096"
             width="9.1882286"
             height="3.0396745"
             x="298.22217"
             y="426.32812" /></g></g><text
         style="font-size:5px;font-family:ocra10;fill:#e6e6e6"
         id="text2934"
         font-size="5"
         transform="translate(277.2002,426.2041)"><tspan
           id="tspan7070"
           style="font-size:3.125px">Honeywell</tspan></text>
<text
         y="430.07574"
         x="277.04254"
         style="font-size:5px;font-family:ocra10;fill:#e6e6e6"
         id="text2936"
         font-size="5"><tspan
           id="tspan7072"
           style="font-size:3.125px">015PG2A5</tspan></text>
</g><rect
       y="425.60138"
       x="298.20486"
       height="4.3355188"
       width="0.6306209"
       id="rect7106"
       style="fill:#000000;fill-opacity:1;stroke:#000000;stroke-width:1.19200003;stroke-miterlimit:4;stroke-dasharray:none;stroke-opacity:0" /></g></svg>